# Blender v2.80 (sub 75) OBJ File: 'pizzabodem_saus.blend'
# www.blender.org
mtllib pizzabodem_saus.mtl
o Cylinder.001
v 0.000000 -0.034183 -0.839524
v 0.163783 -0.034183 -0.823393
v 0.321272 -0.034183 -0.775619
v 0.466414 -0.034183 -0.698039
v 0.593633 -0.034183 -0.593633
v 0.698039 -0.034183 -0.466415
v 0.775619 -0.034183 -0.321272
v 0.823393 -0.034183 -0.163783
v 0.839524 -0.034183 -0.000000
v 0.823393 -0.034183 0.163783
v 0.775619 -0.034183 0.321272
v 0.698039 -0.034183 0.466414
v 0.593633 -0.034183 0.593633
v 0.466414 -0.034183 0.698039
v 0.321272 -0.034183 0.775619
v 0.163783 -0.034183 0.823393
v -0.000000 -0.034183 0.839524
v -0.163783 -0.034183 0.823393
v -0.321272 -0.034183 0.775619
v -0.466415 -0.034183 0.698038
v -0.593633 -0.034183 0.593633
v -0.698039 -0.034183 0.466414
v -0.775619 -0.034183 0.321271
v -0.823393 -0.034183 0.163782
v -0.839524 -0.034183 -0.000001
v -0.823392 -0.034183 -0.163784
v -0.780051 -0.026000 -0.321275
v -0.705270 -0.026000 -0.464087
v -0.593632 -0.034183 -0.593634
v -0.466413 -0.034183 -0.698039
v -0.321271 -0.034183 -0.775619
v -0.163782 -0.034183 -0.823393
v 0.000000 -0.039124 -0.976474
v 0.016782 0.028124 -0.981451
v 0.182347 -0.039124 -0.947457
v 0.194126 0.013424 -0.958727
v 0.362098 -0.039124 -0.901334
v 0.380792 0.036846 -0.919313
v 0.555570 -0.039124 -0.792260
v 0.552824 0.019189 -0.811357
v 0.666917 -0.039124 -0.707107
v 0.660070 0.019189 -0.703611
v 0.784418 -0.039124 -0.555570
v 0.805975 0.019189 -0.528245
v 0.893492 -0.039124 -0.382683
v 0.892210 0.019189 -0.380792
v 0.943536 -0.039124 -0.195090
v 0.961323 0.019189 -0.194126
v 0.959810 -0.039124 -0.000000
v 0.969057 0.022671 -0.000000
v 0.951378 -0.039124 0.195090
v 0.956258 0.033117 0.195090
v 0.881729 -0.039124 0.372881
v 0.911126 0.033117 0.363356
v 0.796181 -0.039124 0.540866
v 0.814397 0.033117 0.555570
v 0.674759 -0.039124 0.691423
v 0.692301 0.033117 0.707107
v 0.537808 -0.039124 0.808218
v 0.545462 0.033117 0.831470
v 0.382683 -0.039124 0.870536
v 0.382683 0.033117 0.910814
v 0.195090 -0.039124 0.930675
v 0.195090 0.033117 0.980785
v -0.000000 -0.039124 0.939068
v -0.000000 0.033117 0.986010
v -0.195091 -0.039124 0.958436
v -0.195091 0.033117 0.980785
v -0.382684 -0.039124 0.886238
v -0.382684 0.033117 0.923879
v -0.555571 -0.039124 0.800886
v -0.539681 0.061829 0.819146
v -0.707107 -0.039124 0.678875
v -0.694722 0.033117 0.690635
v -0.818531 -0.039124 0.555570
v -0.813683 0.033117 0.543565
v -0.886238 -0.039124 0.382683
v -0.905816 0.033117 0.382683
v -0.950202 -0.039124 0.195089
v -0.951833 0.024306 0.195089
v -0.973169 -0.039124 -0.000001
v -0.972528 0.022671 -0.010398
v -0.951378 -0.039124 -0.195091
v -0.930999 0.020245 -0.194127
v -0.903294 -0.039124 -0.363080
v -0.892225 0.014711 -0.380793
v -0.801081 -0.039124 -0.555571
v -0.797252 0.019189 -0.552825
v -0.707106 -0.039124 -0.673779
v -0.704124 0.013407 -0.649807
v -0.536944 -0.039124 -0.804023
v -0.546259 0.015970 -0.809381
v -0.382682 -0.039124 -0.901334
v -0.364976 0.021710 -0.911290
v -0.195089 -0.039124 -0.943536
v -0.190203 0.012985 -0.951452
v 0.932385 0.026624 -0.000000
v 0.916889 0.024460 -0.162973
v 0.916081 0.033117 0.163783
v 0.848794 0.033117 0.384690
v 0.744383 0.033117 0.563981
v 0.622903 0.033117 0.693639
v 0.466414 0.033117 0.802923
v 0.321272 0.033117 0.880503
v 0.168661 0.033117 0.928277
v -0.000000 0.033117 0.924895
v -0.163783 0.033117 0.920959
v -0.345664 0.033117 0.878064
v -0.510320 0.033117 0.766335
v -0.788776 0.033117 0.463487
v -0.701932 0.033117 0.593633
v -0.910714 0.026624 0.004579
v -0.880442 0.023987 -0.172297
v -0.896568 0.033117 0.163782
v -0.854648 0.033117 0.321271
v 0.864473 0.024460 -0.319684
v 0.775081 0.024460 -0.505575
v -0.831035 0.021729 -0.329135
v 0.624847 0.024460 -0.666313
v -0.766408 0.021729 -0.465589
v 0.488501 0.024460 -0.779959
v -0.664750 0.023987 -0.634499
v -0.493135 0.024460 -0.773098
v 0.319684 0.024460 -0.864473
v 0.162973 0.024460 -0.919328
v -0.320695 0.024460 -0.858138
v -0.162972 0.024460 -0.902312
v 0.000000 0.024460 -0.937819
vt 0.513015 0.725492
vt 0.554095 0.719063
vt 0.556447 0.747829
vt 0.515586 0.754914
vt 0.593374 0.703791
vt 0.595481 0.730571
vt 0.629343 0.680264
vt 0.637356 0.704818
vt 0.660618 0.649384
vt 0.670863 0.671230
vt 0.685999 0.612340
vt 0.707539 0.624215
vt 0.704510 0.570555
vt 0.728739 0.570813
vt 0.715439 0.525634
vt 0.740842 0.526057
vt 0.718367 0.479303
vt 0.743685 0.480026
vt 0.713181 0.433344
vt 0.738665 0.434260
vt 0.700080 0.389522
vt 0.720219 0.372795
vt 0.679568 0.349522
vt 0.692724 0.323483
vt 0.652433 0.314880
vt 0.661278 0.288350
vt 0.619718 0.286928
vt 0.621168 0.259360
vt 0.582680 0.266740
vt 0.584130 0.239173
vt 0.542742 0.255092
vt 0.545419 0.227468
vt 0.501440 0.252432
vt 0.503024 0.230362
vt 0.460360 0.258861
vt 0.461860 0.233355
vt 0.421081 0.274133
vt 0.416413 0.247533
vt 0.385112 0.297661
vt 0.375772 0.280906
vt 0.818031 0.636956
vt 0.818139 0.591190
vt 0.836209 0.564380
vt 0.836209 0.635378
vt 0.353837 0.328540
vt 0.328456 0.365584
vt 0.307829 0.369435
vt 0.328772 0.331769
vt 0.309945 0.407370
vt 0.292242 0.410262
vt 0.299016 0.452291
vt 0.282785 0.455115
vt 0.296088 0.498621
vt 0.280115 0.499941
vt 0.301274 0.544580
vt 0.288863 0.549349
vt 0.836209 0.606652
vt 0.838845 0.564380
vt 0.850851 0.572027
vt 0.850851 0.615290
vt 0.313524 0.588695
vt 0.333316 0.628071
vt 0.319492 0.630604
vt 0.302297 0.592902
vt 0.362022 0.663044
vt 0.346296 0.677090
vt 0.394737 0.690996
vt 0.390428 0.714179
vt 0.431775 0.711184
vt 0.434383 0.736154
vt 0.471713 0.722832
vt 0.474354 0.746785
vt 0.778731 0.415424
vt 0.802688 0.416084
vt 0.801663 0.467178
vt 0.777701 0.466771
vt 0.801141 0.521419
vt 0.777175 0.521282
vt 0.801141 0.576723
vt 0.777175 0.576860
vt 0.801663 0.630963
vt 0.777701 0.631370
vt 0.802688 0.682057
vt 0.778730 0.682718
vt 0.804176 0.728040
vt 0.780226 0.728929
vt 0.806070 0.767146
vt 0.782129 0.768229
vt 0.836563 0.329913
vt 0.860496 0.330996
vt 0.861379 0.372664
vt 0.836563 0.369212
vt 0.864029 0.415424
vt 0.836563 0.415424
vt 0.864029 0.466772
vt 0.836563 0.466772
vt 0.864029 0.521282
vt 0.836563 0.521282
vt 0.864029 0.576860
vt 0.836563 0.576860
vt 0.864029 0.631370
vt 0.836563 0.631370
vt 0.864029 0.682718
vt 0.836563 0.682718
vt 0.864029 0.728930
vt 0.836563 0.728930
vt 0.891495 0.689630
vt 0.864029 0.689630
vt 0.864029 0.643418
vt 0.891495 0.643418
vt 0.864029 0.592071
vt 0.891495 0.592071
vt 0.864029 0.537560
vt 0.891495 0.537560
vt 0.864029 0.481982
vt 0.891495 0.481982
vt 0.864029 0.427472
vt 0.891495 0.427472
vt 0.864029 0.376124
vt 0.891495 0.376124
vt 0.864029 0.329913
vt 0.891495 0.329913
vt 0.809153 0.330214
vt 0.836563 0.329913
vt 0.834963 0.372816
vt 0.807552 0.373117
vt 0.831470 0.422890
vt 0.806511 0.422088
vt 0.830034 0.475257
vt 0.806070 0.475244
vt 0.830208 0.530282
vt 0.806245 0.530543
vt 0.830989 0.585326
vt 0.807029 0.585859
vt 0.832347 0.638271
vt 0.808394 0.639068
vt 0.834229 0.687085
vt 0.810285 0.688124
vt 0.836563 0.729890
vt 0.812631 0.731142
vt 0.564502 0.763265
vt 0.515811 0.770885
vt 0.466857 0.767732
vt 0.419520 0.753926
vt 0.375620 0.729998
vt 0.336844 0.696868
vt 0.304682 0.655808
vt 0.280370 0.608397
vt 0.264842 0.556457
vt 0.260608 0.501738
vt 0.755737 0.479353
vt 0.755737 0.534000
vt 0.742782 0.587243
vt 0.720842 0.636770
vt 0.690759 0.680677
vt 0.653690 0.717277
vt 0.611058 0.745164
vt 0.782129 0.329913
vt 0.806070 0.330996
vt 0.804176 0.370102
vt 0.780226 0.369213
vt 0.254504 0.524321
vt 0.254504 0.468742
vt 0.264205 0.414232
vt 0.283234 0.362885
vt 0.310860 0.316673
vt 0.346021 0.277373
vt 0.387366 0.246496
vt 0.433307 0.225227
vt 0.482077 0.214384
vt 0.531802 0.214384
vt 0.580572 0.225227
vt 0.626512 0.246495
vt 0.667858 0.277373
vt 0.703019 0.316673
vt 0.730645 0.362884
vt 0.749674 0.414232
vt 0.759375 0.468742
vt 0.759375 0.524321
vt 0.749674 0.578831
vt 0.730645 0.630179
vt 0.703019 0.676390
vt 0.667858 0.715690
vt 0.626512 0.746568
vt 0.580572 0.767836
vt 0.531802 0.778679
vt 0.482076 0.778679
vt 0.433306 0.767836
vt 0.387366 0.746567
vt 0.346021 0.715690
vt 0.310860 0.676390
vt 0.283234 0.630178
vt 0.264205 0.578831
vt 0.261389 0.447264
vt 0.274407 0.393756
vt 0.296456 0.343983
vt 0.326689 0.299858
vt 0.363943 0.263076
vt 0.406786 0.235051
vt 0.453574 0.216860
vt 0.502506 0.209201
vt 0.551704 0.212370
vt 0.599276 0.226245
vt 0.643394 0.250292
vt 0.682362 0.283587
vt 0.714684 0.324850
vt 0.739117 0.372497
vt 0.754722 0.424695
vn -0.0547 0.8547 0.5163
vn -0.1729 0.8306 0.5294
vn -0.2700 0.8085 0.5229
vn -0.3877 0.7938 0.4686
vn -0.4517 0.7978 0.3994
vn -0.5172 0.8151 0.2609
vn -0.5346 0.8277 0.1705
vn -0.5392 0.8409 0.0466
vn -0.5667 0.8208 -0.0724
vn -0.5788 0.7962 -0.1760
vn -0.5168 0.8056 -0.2899
vn -0.4383 0.8120 -0.3854
vn -0.3587 0.8029 -0.4762
vn -0.2773 0.8086 -0.5189
vn -0.1633 0.8321 -0.5301
vn -0.0221 0.8164 -0.5770
vn 0.0363 0.8049 -0.5922
vn 0.1443 0.8290 -0.5403
vn 0.3108 0.8029 -0.5086
vn 0.4359 0.7473 -0.5015
vn 0.5205 0.7612 -0.3868
vn 0.5963 0.7456 -0.2977
vn 0.6510 0.7361 -0.1854
vn 0.6604 0.7470 -0.0769
vn 0.6762 0.7317 0.0864
vn 0.6679 0.7139 0.2105
vn 0.6034 0.7383 0.3012
vn 0.5139 0.7825 0.3517
vn 0.3842 0.7922 0.4740
vn 0.2782 0.7920 0.5434
vn 0.1693 0.7967 0.5802
vn 0.0869 0.8306 0.5501
vn 0.0011 1.0000 0.0006
vn 0.1339 -0.1644 -0.9773
vn 0.2352 -0.2684 -0.9342
vn 0.4790 -0.2860 -0.8299
vn 0.6610 -0.0458 -0.7490
vn 0.7769 0.0674 -0.6260
vn 0.8537 -0.0180 -0.5205
vn 0.9452 -0.1264 -0.3009
vn 0.9740 -0.2188 -0.0581
vn 0.9929 -0.1047 0.0568
vn 0.9299 -0.2003 0.3084
vn 0.8522 -0.2963 0.4312
vn 0.7405 -0.3088 0.5969
vn 0.6170 -0.3033 0.7261
vn 0.3748 -0.3897 0.8412
vn 0.2821 -0.5088 0.8133
vn 0.0290 -0.5574 0.8298
vn 0.0327 -0.4322 0.9012
vn -0.3029 -0.3655 0.8802
vn -0.5012 -0.2238 0.8359
vn -0.6307 -0.0314 0.7754
vn -0.7580 0.0915 0.6459
vn -0.9005 -0.0560 0.4312
vn -0.9481 -0.1482 0.2814
vn -0.9941 0.0011 0.1084
vn -0.9740 0.1562 -0.1638
vn -0.9449 0.2277 -0.2350
vn -0.8786 0.0534 -0.4746
vn -0.7366 0.2009 -0.6458
vn -0.6598 0.0902 -0.7460
vn -0.5081 -0.0765 -0.8579
vn -0.0117 0.9987 -0.0503
vn -0.2228 -0.1087 -0.9688
vn -0.1513 -0.0790 -0.9853
vn 0.0000 -1.0000 0.0000
vn 0.0097 0.9995 -0.0287
usemtl Dough
s off
f 1/1/1 2/2/1 125/3/1 128/4/1
f 2/2/2 3/5/2 124/6/2 125/3/2
f 3/5/3 4/7/3 121/8/3 124/6/3
f 4/7/4 5/9/4 119/10/4 121/8/4
f 5/9/5 6/11/5 117/12/5 119/10/5
f 6/11/6 7/13/6 116/14/6 117/12/6
f 7/13/7 8/15/7 98/16/7 116/14/7
f 8/15/8 9/17/8 97/18/8 98/16/8
f 9/17/9 10/19/9 99/20/9 97/18/9
f 10/19/10 11/21/10 100/22/10 99/20/10
f 11/21/11 12/23/11 101/24/11 100/22/11
f 12/23/12 13/25/12 102/26/12 101/24/12
f 13/25/13 14/27/13 103/28/13 102/26/13
f 14/27/14 15/29/14 104/30/14 103/28/14
f 15/29/15 16/31/15 105/32/15 104/30/15
f 16/31/16 17/33/16 106/34/16 105/32/16
f 17/33/17 18/35/17 107/36/17 106/34/17
f 18/35/18 19/37/18 108/38/18 107/36/18
f 19/37/19 20/39/19 109/40/19 108/38/19
f 20/41/20 21/42/20 111/43/20 109/44/20
f 21/45/21 22/46/21 110/47/21 111/48/21
f 22/46/22 23/49/22 115/50/22 110/47/22
f 23/49/23 24/51/23 114/52/23 115/50/23
f 24/51/24 25/53/24 112/54/24 114/52/24
f 25/53/25 26/55/25 113/56/25 112/54/25
f 26/57/26 27/58/26 118/59/26 113/60/26
f 27/61/27 28/62/27 120/63/27 118/64/27
f 28/62/28 29/65/28 122/66/28 120/63/28
f 29/65/29 30/67/29 123/68/29 122/66/29
f 30/67/30 31/69/30 126/70/30 123/68/30
f 31/69/31 32/71/31 127/72/31 126/70/31
f 32/71/32 1/1/32 128/4/32 127/72/32
f 1/1/33 32/71/33 31/69/33 30/67/33 29/65/33 28/62/33 27/61/33 26/55/33 25/53/33 24/51/33 23/49/33 22/46/33 21/45/33 20/39/33 19/37/33 18/35/33 17/33/33 16/31/33 15/29/33 14/27/33 13/25/33 12/23/33 11/21/33 10/19/33 9/17/33 8/15/33 7/13/33 6/11/33 5/9/33 4/7/33 3/5/33 2/2/33
f 33/73/34 34/74/34 36/75/34 35/76/34
f 35/76/35 36/75/35 38/77/35 37/78/35
f 37/78/36 38/77/36 40/79/36 39/80/36
f 39/80/37 40/79/37 42/81/37 41/82/37
f 41/82/38 42/81/38 44/83/38 43/84/38
f 43/84/39 44/83/39 46/85/39 45/86/39
f 45/86/40 46/85/40 48/87/40 47/88/40
f 47/89/41 48/90/41 50/91/41 49/92/41
f 49/92/42 50/91/42 52/93/42 51/94/42
f 51/94/43 52/93/43 54/95/43 53/96/43
f 53/96/44 54/95/44 56/97/44 55/98/44
f 55/98/45 56/97/45 58/99/45 57/100/45
f 57/100/46 58/99/46 60/101/46 59/102/46
f 59/102/47 60/101/47 62/103/47 61/104/47
f 61/104/48 62/103/48 64/105/48 63/106/48
f 63/107/49 64/108/49 66/109/49 65/110/49
f 65/110/50 66/109/50 68/111/50 67/112/50
f 67/112/51 68/111/51 70/113/51 69/114/51
f 69/114/52 70/113/52 72/115/52 71/116/52
f 71/116/53 72/115/53 74/117/53 73/118/53
f 73/118/54 74/117/54 76/119/54 75/120/54
f 75/120/55 76/119/55 78/121/55 77/122/55
f 77/123/56 78/124/56 80/125/56 79/126/56
f 79/126/57 80/125/57 82/127/57 81/128/57
f 81/128/58 82/127/58 84/129/58 83/130/58
f 83/130/59 84/129/59 86/131/59 85/132/59
f 85/132/60 86/131/60 88/133/60 87/134/60
f 87/134/61 88/133/61 90/135/61 89/136/61
f 89/136/62 90/135/62 92/137/62 91/138/62
f 91/138/63 92/137/63 94/139/63 93/140/63
f 36/141/64 34/142/64 96/143/64 94/144/64 92/145/64 90/146/64 88/147/64 86/148/64 84/149/64 82/150/64 112/54/64 113/56/64 118/64/64 120/63/64 122/66/64 123/68/64 126/70/64 127/72/64 128/4/64 125/3/64 124/6/64 121/8/64 119/10/64 117/12/64 116/14/64 98/16/64 97/18/64 50/151/64 48/152/64 46/153/64 44/154/64 42/155/64 40/156/64 38/157/64
f 93/158/65 94/159/65 96/160/65 95/161/65
f 95/161/66 96/160/66 34/74/66 33/73/66
f 33/162/67 35/163/67 37/164/67 39/165/67 41/166/67 43/167/67 45/168/67 47/169/67 49/170/67 51/171/67 53/172/67 55/173/67 57/174/67 59/175/67 61/176/67 63/177/67 65/178/67 67/179/67 69/180/67 71/181/67 73/182/67 75/183/67 77/184/67 79/185/67 81/186/67 83/187/67 85/188/67 87/189/67 89/190/67 91/191/67 93/192/67 95/193/67
f 50/151/68 97/18/68 99/20/68 100/22/68 101/24/68 102/26/68 103/28/68 104/30/68 105/32/68 106/34/68 107/36/68 108/38/68 109/40/68 111/48/68 110/47/68 115/50/68 114/52/68 112/54/68 82/150/68 80/194/68 78/195/68 76/196/68 74/197/68 72/198/68 70/199/68 68/200/68 66/201/68 64/202/68 62/203/68 60/204/68 58/205/68 56/206/68 54/207/68 52/208/68
o Cylinder.002_Cylinder.005
v 0.000000 -0.026053 -0.848745
v 0.000000 -0.002534 -0.900038
v 0.165582 -0.026053 -0.832437
v 0.165582 -0.015013 -0.871932
v 0.324801 -0.026053 -0.784138
v 0.324801 0.006323 -0.850254
v 0.471538 -0.026053 -0.705706
v 0.471538 0.007634 -0.778422
v 0.600153 -0.026053 -0.600153
v 0.634293 0.006143 -0.671549
v 0.705706 -0.026053 -0.471537
v 0.793118 0.015914 -0.471537
v 0.784138 -0.026053 -0.324801
v 0.876581 0.008076 -0.324801
v 0.832437 -0.026053 -0.165582
v 0.901229 0.010681 -0.165582
v 0.848745 -0.026053 -0.000000
v 0.921031 -0.006580 -0.000000
v 0.832437 -0.026053 0.165582
v 0.894337 0.004707 0.165582
v 0.784138 -0.026053 0.324801
v 0.855690 0.012392 0.324801
v 0.705706 -0.026053 0.471537
v 0.777257 0.012392 0.471537
v 0.600153 -0.026053 0.600153
v 0.612294 0.002611 0.686596
v 0.471537 -0.026053 0.705706
v 0.456428 0.002611 0.792148
v 0.324801 -0.026053 0.784138
v 0.309691 0.002611 0.870581
v 0.165582 -0.026053 0.832437
v 0.150472 0.002611 0.918879
v -0.000000 -0.026053 0.848745
v 0.028879 0.026893 0.936800
v -0.165582 -0.026053 0.832437
v -0.165582 0.023585 0.954276
v -0.324801 -0.026053 0.784138
v -0.320599 0.023003 0.885651
v -0.471538 -0.026053 0.705705
v -0.471538 0.023585 0.785049
v -0.600154 -0.026053 0.655296
v -0.600154 0.021622 0.742265
v -0.787643 -0.026053 0.471537
v -0.716669 -0.000804 0.530676
v -0.784138 -0.026053 0.324800
v -0.862830 0.023585 0.324800
v -0.832437 -0.026053 0.165581
v -0.892678 0.023585 0.165581
v -0.848745 -0.026053 -0.000001
v -0.918392 0.023585 -0.000001
v -0.832437 -0.026053 -0.165583
v -0.888643 0.015742 -0.165583
v -0.784138 -0.026053 -0.324802
v -0.841888 0.011219 -0.324802
v -0.705705 -0.026053 -0.471538
v -0.767057 0.004595 -0.490075
v -0.600153 -0.026053 -0.600154
v -0.706451 0.016854 -0.600154
v -0.471537 -0.026053 -0.705706
v -0.558132 0.006660 -0.744987
v -0.324800 -0.026053 -0.784139
v -0.324800 0.018229 -0.865071
v -0.165581 -0.026053 -0.832437
v -0.165581 0.000473 -0.894489
vt 0.000000 0.000000
vt 1.000000 0.000000
vt 1.000000 1.000000
vt 0.000000 1.000000
vt 0.000000 0.000000
vt 1.000000 0.000000
vt 1.000000 1.000000
vt 0.000000 1.000000
vt 0.000000 0.000000
vt 1.000000 0.000000
vt 1.000000 1.000000
vt 0.000000 1.000000
vt 0.000000 0.000000
vt 1.000000 0.000000
vt 1.000000 1.000000
vt 0.000000 1.000000
vt 0.000000 0.000000
vt 1.000000 0.000000
vt 1.000000 1.000000
vt 0.000000 1.000000
vt 0.000000 0.000000
vt 1.000000 0.000000
vt 1.000000 1.000000
vt 0.000000 1.000000
vt 0.000000 0.000000
vt 1.000000 0.000000
vt 1.000000 1.000000
vt 0.000000 1.000000
vt 0.000000 0.000000
vt 1.000000 0.000000
vt 1.000000 1.000000
vt 0.000000 1.000000
vt 0.000000 0.000000
vt 1.000000 0.000000
vt 1.000000 1.000000
vt 0.000000 1.000000
vt 0.000000 0.000000
vt 1.000000 0.000000
vt 1.000000 1.000000
vt 0.000000 1.000000
vt 0.000000 0.000000
vt 1.000000 0.000000
vt 1.000000 1.000000
vt 0.000000 1.000000
vt 0.000000 0.000000
vt 1.000000 0.000000
vt 1.000000 1.000000
vt 0.000000 1.000000
vt 0.000000 0.000000
vt 1.000000 0.000000
vt 1.000000 1.000000
vt 0.000000 1.000000
vt 0.000000 0.000000
vt 1.000000 0.000000
vt 1.000000 1.000000
vt 0.000000 1.000000
vt 0.000000 0.000000
vt 1.000000 0.000000
vt 1.000000 1.000000
vt 0.000000 1.000000
vt 0.000000 0.000000
vt 1.000000 0.000000
vt 1.000000 1.000000
vt 0.000000 1.000000
vt 0.000000 0.000000
vt 1.000000 0.000000
vt 1.000000 1.000000
vt 0.000000 1.000000
vt 0.000000 0.000000
vt 1.000000 0.000000
vt 1.000000 1.000000
vt 0.000000 1.000000
vt 0.000000 0.000000
vt 1.000000 0.000000
vt 1.000000 1.000000
vt 0.000000 1.000000
vt 0.000000 0.000000
vt 1.000000 0.000000
vt 1.000000 1.000000
vt 0.000000 1.000000
vt 0.000000 0.000000
vt 1.000000 0.000000
vt 1.000000 1.000000
vt 0.000000 1.000000
vt 0.000000 0.000000
vt 1.000000 0.000000
vt 1.000000 1.000000
vt 0.000000 1.000000
vt 0.000000 0.000000
vt 1.000000 0.000000
vt 1.000000 1.000000
vt 0.000000 1.000000
vt 0.000000 0.000000
vt 1.000000 0.000000
vt 1.000000 1.000000
vt 0.000000 1.000000
vt 0.000000 0.000000
vt 1.000000 0.000000
vt 1.000000 1.000000
vt 0.000000 1.000000
vt 0.000000 0.000000
vt 1.000000 0.000000
vt 1.000000 1.000000
vt 0.000000 1.000000
vt 0.000000 0.000000
vt 1.000000 0.000000
vt 1.000000 1.000000
vt 0.000000 1.000000
vt 0.000000 0.000000
vt 1.000000 0.000000
vt 1.000000 1.000000
vt 0.000000 1.000000
vt 0.000000 0.000000
vt 1.000000 0.000000
vt 1.000000 1.000000
vt 0.000000 1.000000
vt 0.000000 0.000000
vt 1.000000 0.000000
vt 1.000000 1.000000
vt 0.000000 1.000000
vt 0.500000 1.000000
vt 0.597545 0.990393
vt 0.691342 0.961940
vt 0.777785 0.915735
vt 0.853553 0.853553
vt 0.915735 0.777785
vt 0.961940 0.691342
vt 0.990393 0.597545
vt 1.000000 0.500000
vt 0.990393 0.402455
vt 0.961940 0.308658
vt 0.915735 0.222215
vt 0.853553 0.146447
vt 0.777785 0.084265
vt 0.691342 0.038060
vt 0.597545 0.009607
vt 0.500000 0.000000
vt 0.402455 0.009607
vt 0.308658 0.038060
vt 0.222215 0.084265
vt 0.146446 0.146447
vt 0.084265 0.222215
vt 0.038060 0.308659
vt 0.009607 0.402455
vt 0.000000 0.500000
vt 0.009607 0.597546
vt 0.038060 0.691342
vt 0.084266 0.777786
vt 0.146447 0.853554
vt 0.222215 0.915735
vt 0.308659 0.961940
vt 0.402456 0.990393
vt 0.000000 0.000000
vt 1.000000 0.000000
vt 1.000000 1.000000
vt 0.000000 1.000000
vt 0.000000 0.000000
vt 1.000000 0.000000
vt 1.000000 1.000000
vt 0.000000 1.000000
vt 0.500000 1.000000
vt 0.597545 0.990393
vt 0.691342 0.961940
vt 0.777785 0.915735
vt 0.853553 0.853553
vt 0.915735 0.777785
vt 0.961940 0.691342
vt 0.990393 0.597545
vt 1.000000 0.500000
vt 0.990393 0.402455
vt 0.961940 0.308658
vt 0.915735 0.222215
vt 0.853553 0.146447
vt 0.777785 0.084265
vt 0.691342 0.038060
vt 0.597545 0.009607
vt 0.500000 0.000000
vt 0.402455 0.009607
vt 0.308658 0.038060
vt 0.222215 0.084265
vt 0.146446 0.146447
vt 0.084265 0.222215
vt 0.038060 0.308659
vt 0.009607 0.402455
vt 0.000000 0.500000
vt 0.009607 0.597546
vt 0.038060 0.691342
vt 0.084266 0.777786
vt 0.146447 0.853554
vt 0.222215 0.915735
vt 0.308659 0.961940
vt 0.402456 0.990393
vn 0.0125 -0.9345 -0.3557
vn 0.1440 -0.9153 -0.3763
vn 0.2186 -0.8811 -0.4193
vn 0.2522 -0.9013 -0.3523
vn 0.3768 -0.8840 -0.2768
vn 0.3789 -0.8956 -0.2330
vn 0.4009 -0.9122 -0.0844
vn 0.3687 -0.9253 -0.0884
vn 0.3495 -0.9337 0.0772
vn 0.4555 -0.8783 0.1456
vn 0.4589 -0.8540 0.2453
vn 0.3990 -0.8701 0.2893
vn 0.2299 -0.9226 0.3099
vn 0.1806 -0.9237 0.3379
vn 0.0998 -0.9391 0.3288
vn -0.0258 -0.9047 0.4252
vn 0.0097 -0.8989 0.4380
vn -0.1479 -0.9036 0.4021
vn -0.2811 -0.8396 0.4647
vn -0.1737 -0.8500 0.4973
vn -0.6970 -0.4462 0.5613
vn -0.8762 -0.3511 0.3302
vn -0.5756 -0.8055 0.1412
vn -0.6055 -0.7922 0.0768
vn -0.5866 -0.8075 -0.0625
vn -0.5630 -0.8115 -0.1565
vn -0.4600 -0.8633 -0.2076
vn -0.3566 -0.8869 -0.2938
vn -0.2971 -0.9093 -0.2916
vn -0.1953 -0.8837 -0.4253
vn 0.0060 1.0000 -0.0050
vn -0.1563 -0.8851 -0.4383
vn -0.0349 -0.9142 -0.4037
vn 0.0000 -1.0000 -0.0000
usemtl Material.001
s off
f 129/209/69 130/210/69 132/211/69 131/212/69
f 131/213/70 132/214/70 134/215/70 133/216/70
f 133/217/71 134/218/71 136/219/71 135/220/71
f 135/221/72 136/222/72 138/223/72 137/224/72
f 137/225/73 138/226/73 140/227/73 139/228/73
f 139/229/74 140/230/74 142/231/74 141/232/74
f 141/233/75 142/234/75 144/235/75 143/236/75
f 143/237/76 144/238/76 146/239/76 145/240/76
f 145/241/77 146/242/77 148/243/77 147/244/77
f 147/245/78 148/246/78 150/247/78 149/248/78
f 149/249/79 150/250/79 152/251/79 151/252/79
f 151/253/80 152/254/80 154/255/80 153/256/80
f 153/257/81 154/258/81 156/259/81 155/260/81
f 155/261/82 156/262/82 158/263/82 157/264/82
f 157/265/83 158/266/83 160/267/83 159/268/83
f 159/269/84 160/270/84 162/271/84 161/272/84
f 161/273/85 162/274/85 164/275/85 163/276/85
f 163/277/86 164/278/86 166/279/86 165/280/86
f 165/281/87 166/282/87 168/283/87 167/284/87
f 167/285/88 168/286/88 170/287/88 169/288/88
f 169/289/89 170/290/89 172/291/89 171/292/89
f 171/293/90 172/294/90 174/295/90 173/296/90
f 173/297/91 174/298/91 176/299/91 175/300/91
f 175/301/92 176/302/92 178/303/92 177/304/92
f 177/305/93 178/306/93 180/307/93 179/308/93
f 179/309/94 180/310/94 182/311/94 181/312/94
f 181/313/95 182/314/95 184/315/95 183/316/95
f 183/317/96 184/318/96 186/319/96 185/320/96
f 185/321/97 186/322/97 188/323/97 187/324/97
f 187/325/98 188/326/98 190/327/98 189/328/98
f 132/329/99 130/330/99 192/331/99 190/332/99 188/333/99 186/334/99 184/335/99 182/336/99 180/337/99 178/338/99 176/339/99 174/340/99 172/341/99 170/342/99 168/343/99 166/344/99 164/345/99 162/346/99 160/347/99 158/348/99 156/349/99 154/350/99 152/351/99 150/352/99 148/353/99 146/354/99 144/355/99 142/356/99 140/357/99 138/358/99 136/359/99 134/360/99
f 189/361/100 190/362/100 192/363/100 191/364/100
f 191/365/101 192/366/101 130/367/101 129/368/101
f 129/369/102 131/370/102 133/371/102 135/372/102 137/373/102 139/374/102 141/375/102 143/376/102 145/377/102 147/378/102 149/379/102 151/380/102 153/381/102 155/382/102 157/383/102 159/384/102 161/385/102 163/386/102 165/387/102 167/388/102 169/389/102 171/390/102 173/391/102 175/392/102 177/393/102 179/394/102 181/395/102 183/396/102 185/397/102 187/398/102 189/399/102 191/400/102
