# Blender v2.80 (sub 75) OBJ File: 'krijtbord.blend'
# www.blender.org
mtllib krijtbord.mtl
o Plane_Plane.001
v -1.678173 0.000000 2.778164
v 1.678173 0.000000 2.778164
v -1.678173 0.000000 -2.778164
v 1.678173 0.000000 -2.778164
v -1.377263 0.000000 -2.477254
v -1.377263 0.000000 2.477254
v 1.377263 0.000000 2.477254
v 1.377263 0.000000 -2.477254
vt 0.089654 0.054156
vt 0.910346 0.054156
vt 0.910346 0.945844
vt 0.089654 0.945844
vt 0.000000 1.000000
vt 0.000000 0.000000
vt 1.000000 0.000000
vt 1.000000 1.000000
vn 0.0000 1.0000 0.0000
usemtl Material.001
s off
f 6/1/1 7/2/1 8/3/1 5/4/1
usemtl Material
f 6/1/1 5/4/1 3/5/1 1/6/1
f 7/2/1 6/1/1 1/6/1 2/7/1
f 8/3/1 7/2/1 2/7/1 4/8/1
f 5/4/1 8/3/1 4/8/1 3/5/1
