# Blender v2.80 (sub 75) OBJ File: 'pizzabodem.blend'
# www.blender.org
mtllib pizzabodem.mtl
o Cylinder.001
v -0.001377 -0.021811 -0.834387
v 0.162406 -0.021811 -0.818255
v 0.319895 -0.021811 -0.770482
v 0.465038 -0.021811 -0.692901
v 0.592256 -0.021811 -0.588496
v 0.696662 -0.021811 -0.461277
v 0.774242 -0.021811 -0.316135
v 0.822016 -0.021811 -0.158646
v 0.838147 -0.021811 0.005137
v 0.822016 -0.021811 0.168920
v 0.774242 -0.021811 0.326409
v 0.696662 -0.021811 0.471552
v 0.592256 -0.021811 0.598770
v 0.465038 -0.021811 0.703176
v 0.319895 -0.021811 0.780756
v 0.162406 -0.021811 0.828530
v -0.001377 -0.021811 0.844661
v -0.165160 -0.021811 0.828530
v -0.322649 -0.021811 0.780756
v -0.467791 -0.021811 0.703176
v -0.595010 -0.021811 0.598770
v -0.699415 -0.021811 0.471551
v -0.776996 -0.021811 0.326409
v -0.824769 -0.021811 0.168920
v -0.840900 -0.021811 0.005137
v -0.824769 -0.021811 -0.158647
v -0.781428 -0.013627 -0.316137
v -0.706647 -0.013627 -0.458949
v -0.595009 -0.021811 -0.588496
v -0.467790 -0.021811 -0.692902
v -0.322647 -0.021811 -0.770482
v -0.165158 -0.021811 -0.818256
v -0.001377 -0.026752 -0.971337
v 0.015405 0.040496 -0.976313
v 0.180971 -0.026752 -0.942319
v 0.192749 0.025797 -0.953590
v 0.360722 -0.026752 -0.896196
v 0.379415 0.049218 -0.914175
v 0.554194 -0.026752 -0.787122
v 0.551448 0.031561 -0.806219
v 0.665540 -0.026752 -0.701969
v 0.658693 0.031561 -0.698474
v 0.783041 -0.026752 -0.550433
v 0.804598 0.031561 -0.523108
v 0.892115 -0.026752 -0.377546
v 0.890833 0.031561 -0.375654
v 0.942159 -0.026752 -0.189953
v 0.959946 0.031561 -0.188989
v 0.958433 -0.026752 0.005137
v 0.967680 0.035043 0.005137
v 0.950001 -0.026752 0.200228
v 0.954882 0.045489 0.200228
v 0.880352 -0.026752 0.378018
v 0.909749 0.045489 0.368494
v 0.794804 -0.026752 0.546004
v 0.813020 0.045489 0.560708
v 0.673382 -0.026752 0.696560
v 0.690925 0.045489 0.712244
v 0.536432 -0.026752 0.813356
v 0.544086 0.045489 0.836607
v 0.381307 -0.026752 0.875674
v 0.381307 0.045489 0.915951
v 0.193714 -0.026752 0.935812
v 0.193714 0.045489 0.985923
v -0.001377 -0.026752 0.944205
v -0.001377 0.045489 0.991148
v -0.196467 -0.026752 0.963573
v -0.196467 0.045489 0.985923
v -0.384060 -0.026752 0.891375
v -0.384060 0.045489 0.929017
v -0.556947 -0.026752 0.806023
v -0.541058 0.074201 0.824283
v -0.708484 -0.026752 0.684013
v -0.696099 0.045489 0.695773
v -0.819907 -0.026752 0.560707
v -0.815060 0.045489 0.548703
v -0.887615 -0.026752 0.387820
v -0.907192 0.045489 0.387820
v -0.951578 -0.026752 0.200227
v -0.953210 0.036679 0.200227
v -0.974546 -0.026752 0.005136
v -0.973905 0.035043 -0.005261
v -0.952754 -0.026752 -0.189954
v -0.932376 0.032617 -0.188990
v -0.904670 -0.026752 -0.357942
v -0.893601 0.027083 -0.375655
v -0.802458 -0.026752 -0.550434
v -0.798629 0.031561 -0.547688
v -0.708482 -0.026752 -0.668642
v -0.705501 0.025779 -0.644670
v -0.538321 -0.026752 -0.798886
v -0.547635 0.028343 -0.804244
v -0.384059 -0.026752 -0.896197
v -0.366353 0.034082 -0.906152
v -0.196465 -0.026752 -0.938399
v -0.191579 0.025358 -0.946315
v 0.931008 0.038996 0.005137
v 0.915513 0.036832 -0.157836
v 0.914705 0.045489 0.168920
v 0.847417 0.045489 0.389827
v 0.743006 0.045489 0.569118
v 0.621526 0.045489 0.698776
v 0.465038 0.045489 0.808060
v 0.319895 0.045489 0.885640
v 0.167285 0.045489 0.933414
v -0.001377 0.045489 0.930032
v -0.165160 0.045489 0.926097
v -0.347040 0.045489 0.883201
v -0.511696 0.045489 0.771472
v -0.790152 0.045489 0.468624
v -0.703309 0.045489 0.598770
v -0.912090 0.038996 0.009716
v -0.881818 0.036359 -0.167160
v -0.897944 0.045489 0.168920
v -0.856025 0.045489 0.326409
v 0.863097 0.036832 -0.314546
v 0.773704 0.036832 -0.500437
v -0.832411 0.034101 -0.323998
v 0.623470 0.036832 -0.661175
v -0.767784 0.034101 -0.460452
v 0.487124 0.036832 -0.774822
v -0.666126 0.036359 -0.629362
v -0.494512 0.036832 -0.767961
v 0.318307 0.036832 -0.859336
v 0.161597 0.036832 -0.914191
v -0.322071 0.036832 -0.853001
v -0.164349 0.036832 -0.897175
v -0.001376 0.036832 -0.932682
vt 0.513015 0.725492
vt 0.554095 0.719063
vt 0.556447 0.747829
vt 0.515586 0.754914
vt 0.593374 0.703791
vt 0.595481 0.730571
vt 0.629343 0.680264
vt 0.637356 0.704818
vt 0.660618 0.649384
vt 0.670863 0.671230
vt 0.685999 0.612340
vt 0.707539 0.624215
vt 0.704510 0.570555
vt 0.728739 0.570813
vt 0.715439 0.525634
vt 0.740842 0.526057
vt 0.718367 0.479303
vt 0.743685 0.480026
vt 0.713181 0.433344
vt 0.738665 0.434260
vt 0.700080 0.389522
vt 0.720219 0.372795
vt 0.679568 0.349522
vt 0.692724 0.323483
vt 0.652433 0.314880
vt 0.661278 0.288350
vt 0.619718 0.286928
vt 0.621168 0.259360
vt 0.582680 0.266740
vt 0.584130 0.239173
vt 0.542742 0.255092
vt 0.545419 0.227468
vt 0.501440 0.252432
vt 0.503024 0.230362
vt 0.460360 0.258861
vt 0.461860 0.233355
vt 0.421081 0.274133
vt 0.416413 0.247533
vt 0.385112 0.297661
vt 0.375772 0.280906
vt 0.818031 0.636956
vt 0.818139 0.591190
vt 0.836209 0.564380
vt 0.836209 0.635378
vt 0.353837 0.328540
vt 0.328456 0.365584
vt 0.307829 0.369435
vt 0.328772 0.331769
vt 0.309945 0.407370
vt 0.292242 0.410262
vt 0.299016 0.452291
vt 0.282785 0.455115
vt 0.296088 0.498621
vt 0.280115 0.499941
vt 0.301274 0.544580
vt 0.288863 0.549349
vt 0.836209 0.606652
vt 0.838845 0.564380
vt 0.850851 0.572027
vt 0.850851 0.615290
vt 0.313524 0.588695
vt 0.333316 0.628071
vt 0.319492 0.630604
vt 0.302297 0.592902
vt 0.362022 0.663044
vt 0.346296 0.677090
vt 0.394737 0.690996
vt 0.390428 0.714179
vt 0.431775 0.711184
vt 0.434383 0.736154
vt 0.471713 0.722832
vt 0.474354 0.746785
vt 0.778731 0.415424
vt 0.802688 0.416084
vt 0.801663 0.467178
vt 0.777701 0.466771
vt 0.801141 0.521419
vt 0.777175 0.521282
vt 0.801141 0.576723
vt 0.777175 0.576860
vt 0.801663 0.630963
vt 0.777701 0.631370
vt 0.802688 0.682057
vt 0.778730 0.682718
vt 0.804176 0.728040
vt 0.780226 0.728929
vt 0.806070 0.767146
vt 0.782129 0.768229
vt 0.836563 0.329913
vt 0.860496 0.330996
vt 0.861379 0.372664
vt 0.836563 0.369212
vt 0.864029 0.415424
vt 0.836563 0.415424
vt 0.864029 0.466772
vt 0.836563 0.466772
vt 0.864029 0.521282
vt 0.836563 0.521282
vt 0.864029 0.576860
vt 0.836563 0.576860
vt 0.864029 0.631370
vt 0.836563 0.631370
vt 0.864029 0.682718
vt 0.836563 0.682718
vt 0.864029 0.728930
vt 0.836563 0.728930
vt 0.891495 0.689630
vt 0.864029 0.689630
vt 0.864029 0.643418
vt 0.891495 0.643418
vt 0.864029 0.592071
vt 0.891495 0.592071
vt 0.864029 0.537560
vt 0.891495 0.537560
vt 0.864029 0.481982
vt 0.891495 0.481982
vt 0.864029 0.427472
vt 0.891495 0.427472
vt 0.864029 0.376124
vt 0.891495 0.376124
vt 0.864029 0.329913
vt 0.891495 0.329913
vt 0.809153 0.330214
vt 0.836563 0.329913
vt 0.834963 0.372816
vt 0.807552 0.373117
vt 0.831470 0.422890
vt 0.806511 0.422088
vt 0.830034 0.475257
vt 0.806070 0.475244
vt 0.830208 0.530282
vt 0.806245 0.530543
vt 0.830989 0.585326
vt 0.807029 0.585859
vt 0.832347 0.638271
vt 0.808394 0.639068
vt 0.834229 0.687085
vt 0.810285 0.688124
vt 0.836563 0.729890
vt 0.812631 0.731142
vt 0.564502 0.763265
vt 0.515811 0.770885
vt 0.466857 0.767732
vt 0.419520 0.753926
vt 0.375620 0.729998
vt 0.336844 0.696868
vt 0.304682 0.655808
vt 0.280370 0.608397
vt 0.264842 0.556457
vt 0.260608 0.501738
vt 0.755737 0.479353
vt 0.755737 0.534000
vt 0.742782 0.587243
vt 0.720842 0.636770
vt 0.690759 0.680677
vt 0.653690 0.717277
vt 0.611058 0.745164
vt 0.782129 0.329913
vt 0.806070 0.330996
vt 0.804176 0.370102
vt 0.780226 0.369213
vt 0.254504 0.524321
vt 0.254504 0.468742
vt 0.264205 0.414232
vt 0.283234 0.362885
vt 0.310860 0.316673
vt 0.346021 0.277373
vt 0.387366 0.246496
vt 0.433307 0.225227
vt 0.482077 0.214384
vt 0.531802 0.214384
vt 0.580572 0.225227
vt 0.626512 0.246495
vt 0.667858 0.277373
vt 0.703019 0.316673
vt 0.730645 0.362884
vt 0.749674 0.414232
vt 0.759375 0.468742
vt 0.759375 0.524321
vt 0.749674 0.578831
vt 0.730645 0.630179
vt 0.703019 0.676390
vt 0.667858 0.715690
vt 0.626512 0.746568
vt 0.580572 0.767836
vt 0.531802 0.778679
vt 0.482076 0.778679
vt 0.433306 0.767836
vt 0.387366 0.746567
vt 0.346021 0.715690
vt 0.310860 0.676390
vt 0.283234 0.630178
vt 0.264205 0.578831
vt 0.261389 0.447264
vt 0.274407 0.393756
vt 0.296456 0.343983
vt 0.326689 0.299858
vt 0.363943 0.263076
vt 0.406786 0.235051
vt 0.453574 0.216860
vt 0.502506 0.209201
vt 0.551704 0.212370
vt 0.599276 0.226245
vt 0.643394 0.250292
vt 0.682362 0.283587
vt 0.714684 0.324850
vt 0.739117 0.372497
vt 0.754722 0.424695
vn -0.0547 0.8547 0.5163
vn -0.1729 0.8306 0.5294
vn -0.2700 0.8085 0.5229
vn -0.3877 0.7938 0.4686
vn -0.4517 0.7978 0.3994
vn -0.5172 0.8151 0.2609
vn -0.5346 0.8277 0.1705
vn -0.5392 0.8409 0.0466
vn -0.5667 0.8208 -0.0724
vn -0.5788 0.7962 -0.1760
vn -0.5168 0.8056 -0.2899
vn -0.4383 0.8120 -0.3854
vn -0.3587 0.8029 -0.4762
vn -0.2773 0.8086 -0.5189
vn -0.1633 0.8321 -0.5301
vn -0.0221 0.8164 -0.5770
vn 0.0363 0.8049 -0.5922
vn 0.1443 0.8290 -0.5403
vn 0.3108 0.8029 -0.5086
vn 0.4359 0.7473 -0.5015
vn 0.5205 0.7612 -0.3868
vn 0.5963 0.7456 -0.2977
vn 0.6510 0.7361 -0.1854
vn 0.6604 0.7470 -0.0769
vn 0.6762 0.7317 0.0864
vn 0.6679 0.7139 0.2105
vn 0.6034 0.7383 0.3012
vn 0.5139 0.7825 0.3517
vn 0.3842 0.7922 0.4740
vn 0.2782 0.7920 0.5434
vn 0.1693 0.7967 0.5802
vn 0.0869 0.8306 0.5501
vn 0.0011 1.0000 0.0006
vn 0.1339 -0.1644 -0.9773
vn 0.2352 -0.2684 -0.9342
vn 0.4790 -0.2860 -0.8299
vn 0.6610 -0.0458 -0.7490
vn 0.7769 0.0674 -0.6260
vn 0.8537 -0.0180 -0.5205
vn 0.9452 -0.1264 -0.3009
vn 0.9740 -0.2188 -0.0581
vn 0.9929 -0.1047 0.0568
vn 0.9299 -0.2003 0.3084
vn 0.8522 -0.2963 0.4312
vn 0.7405 -0.3088 0.5969
vn 0.6170 -0.3033 0.7261
vn 0.3748 -0.3897 0.8412
vn 0.2821 -0.5088 0.8133
vn 0.0290 -0.5574 0.8298
vn 0.0327 -0.4322 0.9012
vn -0.3029 -0.3655 0.8802
vn -0.5012 -0.2238 0.8359
vn -0.6307 -0.0314 0.7754
vn -0.7580 0.0915 0.6459
vn -0.9005 -0.0560 0.4312
vn -0.9481 -0.1482 0.2814
vn -0.9941 0.0011 0.1084
vn -0.9740 0.1562 -0.1638
vn -0.9449 0.2277 -0.2350
vn -0.8786 0.0534 -0.4746
vn -0.7366 0.2009 -0.6458
vn -0.6598 0.0902 -0.7460
vn -0.5081 -0.0765 -0.8579
vn -0.0117 0.9987 -0.0503
vn -0.2228 -0.1087 -0.9688
vn -0.1513 -0.0790 -0.9853
vn 0.0000 -1.0000 -0.0000
vn 0.0097 0.9995 -0.0287
usemtl Dough
s off
f 1/1/1 2/2/1 125/3/1 128/4/1
f 2/2/2 3/5/2 124/6/2 125/3/2
f 3/5/3 4/7/3 121/8/3 124/6/3
f 4/7/4 5/9/4 119/10/4 121/8/4
f 5/9/5 6/11/5 117/12/5 119/10/5
f 6/11/6 7/13/6 116/14/6 117/12/6
f 7/13/7 8/15/7 98/16/7 116/14/7
f 8/15/8 9/17/8 97/18/8 98/16/8
f 9/17/9 10/19/9 99/20/9 97/18/9
f 10/19/10 11/21/10 100/22/10 99/20/10
f 11/21/11 12/23/11 101/24/11 100/22/11
f 12/23/12 13/25/12 102/26/12 101/24/12
f 13/25/13 14/27/13 103/28/13 102/26/13
f 14/27/14 15/29/14 104/30/14 103/28/14
f 15/29/15 16/31/15 105/32/15 104/30/15
f 16/31/16 17/33/16 106/34/16 105/32/16
f 17/33/17 18/35/17 107/36/17 106/34/17
f 18/35/18 19/37/18 108/38/18 107/36/18
f 19/37/19 20/39/19 109/40/19 108/38/19
f 20/41/20 21/42/20 111/43/20 109/44/20
f 21/45/21 22/46/21 110/47/21 111/48/21
f 22/46/22 23/49/22 115/50/22 110/47/22
f 23/49/23 24/51/23 114/52/23 115/50/23
f 24/51/24 25/53/24 112/54/24 114/52/24
f 25/53/25 26/55/25 113/56/25 112/54/25
f 26/57/26 27/58/26 118/59/26 113/60/26
f 27/61/27 28/62/27 120/63/27 118/64/27
f 28/62/28 29/65/28 122/66/28 120/63/28
f 29/65/29 30/67/29 123/68/29 122/66/29
f 30/67/30 31/69/30 126/70/30 123/68/30
f 31/69/31 32/71/31 127/72/31 126/70/31
f 32/71/32 1/1/32 128/4/32 127/72/32
f 1/1/33 32/71/33 31/69/33 30/67/33 29/65/33 28/62/33 27/61/33 26/55/33 25/53/33 24/51/33 23/49/33 22/46/33 21/45/33 20/39/33 19/37/33 18/35/33 17/33/33 16/31/33 15/29/33 14/27/33 13/25/33 12/23/33 11/21/33 10/19/33 9/17/33 8/15/33 7/13/33 6/11/33 5/9/33 4/7/33 3/5/33 2/2/33
f 33/73/34 34/74/34 36/75/34 35/76/34
f 35/76/35 36/75/35 38/77/35 37/78/35
f 37/78/36 38/77/36 40/79/36 39/80/36
f 39/80/37 40/79/37 42/81/37 41/82/37
f 41/82/38 42/81/38 44/83/38 43/84/38
f 43/84/39 44/83/39 46/85/39 45/86/39
f 45/86/40 46/85/40 48/87/40 47/88/40
f 47/89/41 48/90/41 50/91/41 49/92/41
f 49/92/42 50/91/42 52/93/42 51/94/42
f 51/94/43 52/93/43 54/95/43 53/96/43
f 53/96/44 54/95/44 56/97/44 55/98/44
f 55/98/45 56/97/45 58/99/45 57/100/45
f 57/100/46 58/99/46 60/101/46 59/102/46
f 59/102/47 60/101/47 62/103/47 61/104/47
f 61/104/48 62/103/48 64/105/48 63/106/48
f 63/107/49 64/108/49 66/109/49 65/110/49
f 65/110/50 66/109/50 68/111/50 67/112/50
f 67/112/51 68/111/51 70/113/51 69/114/51
f 69/114/52 70/113/52 72/115/52 71/116/52
f 71/116/53 72/115/53 74/117/53 73/118/53
f 73/118/54 74/117/54 76/119/54 75/120/54
f 75/120/55 76/119/55 78/121/55 77/122/55
f 77/123/56 78/124/56 80/125/56 79/126/56
f 79/126/57 80/125/57 82/127/57 81/128/57
f 81/128/58 82/127/58 84/129/58 83/130/58
f 83/130/59 84/129/59 86/131/59 85/132/59
f 85/132/60 86/131/60 88/133/60 87/134/60
f 87/134/61 88/133/61 90/135/61 89/136/61
f 89/136/62 90/135/62 92/137/62 91/138/62
f 91/138/63 92/137/63 94/139/63 93/140/63
f 36/141/64 34/142/64 96/143/64 94/144/64 92/145/64 90/146/64 88/147/64 86/148/64 84/149/64 82/150/64 112/54/64 113/56/64 118/64/64 120/63/64 122/66/64 123/68/64 126/70/64 127/72/64 128/4/64 125/3/64 124/6/64 121/8/64 119/10/64 117/12/64 116/14/64 98/16/64 97/18/64 50/151/64 48/152/64 46/153/64 44/154/64 42/155/64 40/156/64 38/157/64
f 93/158/65 94/159/65 96/160/65 95/161/65
f 95/161/66 96/160/66 34/74/66 33/73/66
f 33/162/67 35/163/67 37/164/67 39/165/67 41/166/67 43/167/67 45/168/67 47/169/67 49/170/67 51/171/67 53/172/67 55/173/67 57/174/67 59/175/67 61/176/67 63/177/67 65/178/67 67/179/67 69/180/67 71/181/67 73/182/67 75/183/67 77/184/67 79/185/67 81/186/67 83/187/67 85/188/67 87/189/67 89/190/67 91/191/67 93/192/67 95/193/67
f 50/151/68 97/18/68 99/20/68 100/22/68 101/24/68 102/26/68 103/28/68 104/30/68 105/32/68 106/34/68 107/36/68 108/38/68 109/40/68 111/48/68 110/47/68 115/50/68 114/52/68 112/54/68 82/150/68 80/194/68 78/195/68 76/196/68 74/197/68 72/198/68 70/199/68 68/200/68 66/201/68 64/202/68 62/203/68 60/204/68 58/205/68 56/206/68 54/207/68 52/208/68
